<?xml version="1.0" encoding="utf-8"?>

<svg version="1.1" id="Layer_1" xmlns="http://www.w3.org/2000/svg" xmlns:xlink="http://www.w3.org/1999/xlink" x="0px" y="0px"
	 viewBox="0 0 5226.152 5000" enable-background="new 0 0 5226.152 5000" xml:space="preserve">
<symbol  id="Heart" viewBox="-44.1 -40 88.2 80">
	<path fill="#33A9D8" enable-background="new    " d="M43.347,22.954C40.525,33.942,30.67,40,19.662,40
		C10.354,40,3.73,34.565-0.056,27.136c-3.956,7.753-10.708,12.782-20.553,12.782c-11.478,0-20.187-6.511-22.85-17.981
		C-48.227,1.405-25.662-19.583-0.056-40C27.175-19.721,48.421,3.2,43.347,22.954z"/>
</symbol>
<g>
	
		<use xlink:href="#Heart"  width="88.2" height="80" x="-44.1" y="-40" transform="matrix(3.0661 0.7943 0.7961 -3.0731 2335.7461 3000.3181)" overflow="visible"/>
	
		<use xlink:href="#Heart"  width="88.2" height="80" x="-44.1" y="-40" transform="matrix(-3.1395 -0.419 -0.4199 3.1466 4397.9663 1048.9775)" overflow="visible"/>
	
		<use xlink:href="#Heart"  width="88.2" height="80" x="-44.1" y="-40" transform="matrix(-2.9791 -1.0756 -1.0781 2.9859 2011.3604 4568.126)" overflow="visible"/>
	
		<use xlink:href="#Heart"  width="88.2" height="80" x="-44.1" y="-40" transform="matrix(-1.88 -2.549 -2.5548 1.8843 1865.3119 2078.0488)" overflow="visible"/>
	
		<use xlink:href="#Heart"  width="88.2" height="80" x="-44.1" y="-40" transform="matrix(-2.2512 -2.228 -2.233 2.2564 3241.116 4542.9585)" overflow="visible"/>
	
		<use xlink:href="#Heart"  width="88.2" height="80" x="-44.1" y="-40" transform="matrix(3.1673 0.0142 0.0143 -3.1745 4781.897 485.7495)" overflow="visible"/>
	
		<use xlink:href="#Heart"  width="88.2" height="80" x="-44.1" y="-40" transform="matrix(-3.141 -0.4076 -0.4085 3.1481 4356.1519 459.382)" overflow="visible"/>
	
		<use xlink:href="#Heart"  width="88.2" height="80" x="-44.1" y="-40" transform="matrix(-1.3688 2.8563 2.8628 1.3719 4207.7085 1380.9995)" overflow="visible"/>
	
		<use xlink:href="#Heart"  width="88.2" height="80" x="-44.1" y="-40" transform="matrix(2.4133 2.0513 2.056 -2.4188 1291.4475 1188.4332)" overflow="visible"/>
	
		<use xlink:href="#Heart"  width="88.2" height="80" x="-44.1" y="-40" transform="matrix(-2.6077 -1.7978 -1.8019 2.6136 1125.141 1528.108)" overflow="visible"/>
	
		<use xlink:href="#Heart"  width="88.2" height="80" x="-44.1" y="-40" transform="matrix(-1.4483 2.8168 2.8232 1.4515 3356.0859 2634.9895)" overflow="visible"/>
	
		<use xlink:href="#Heart"  width="88.2" height="80" x="-44.1" y="-40" transform="matrix(3.1316 0.474 0.4751 -3.1388 1019.6454 982.8923)" overflow="visible"/>
	
		<use xlink:href="#Heart"  width="88.2" height="80" x="-44.1" y="-40" transform="matrix(-0.7066 3.0875 3.0945 0.7082 2298.2544 3883.1094)" overflow="visible"/>
	
		<use xlink:href="#Heart"  width="88.2" height="80" x="-44.1" y="-40" transform="matrix(1.9555 -2.4916 -2.4972 -1.9599 4050.1501 1191.9087)" overflow="visible"/>
	
		<use xlink:href="#Heart"  width="88.2" height="80" x="-44.1" y="-40" transform="matrix(-3.1035 -0.6325 -0.6339 3.1106 3738.8892 1320.6132)" overflow="visible"/>
	
		<use xlink:href="#Heart"  width="88.2" height="80" x="-44.1" y="-40" transform="matrix(-1.9498 -2.496 -2.5017 1.9542 1241.2235 738.4072)" overflow="visible"/>
	
		<use xlink:href="#Heart"  width="88.2" height="80" x="-44.1" y="-40" transform="matrix(0.8713 -3.0451 -3.052 -0.8733 3668.5786 736.8279)" overflow="visible"/>
	
		<use xlink:href="#Heart"  width="88.2" height="80" x="-44.1" y="-40" transform="matrix(-2.6937 -1.6661 -1.6699 2.6998 3757.1028 150.3661)" overflow="visible"/>
	
		<use xlink:href="#Heart"  width="88.2" height="80" x="-44.1" y="-40" transform="matrix(0.1805 3.1622 3.1694 -0.1809 3294.9871 781.8267)" overflow="visible"/>
	
		<use xlink:href="#Heart"  width="88.2" height="80" x="-44.1" y="-40" transform="matrix(2.998 -1.0218 -1.0241 -3.0048 3601.2397 2303.4827)" overflow="visible"/>
	
		<use xlink:href="#Heart"  width="88.2" height="80" x="-44.1" y="-40" transform="matrix(1.8351 -2.5816 -2.5874 -1.8392 2271.5957 1496.1019)" overflow="visible"/>
	
		<use xlink:href="#Heart"  width="88.2" height="80" x="-44.1" y="-40" transform="matrix(-0.0072 3.1673 3.1745 0.0072 2862.1523 4060.1785)" overflow="visible"/>
	
		<use xlink:href="#Heart"  width="88.2" height="80" x="-44.1" y="-40" transform="matrix(3.0277 0.9301 0.9322 -3.0345 2219.6523 4213.8452)" overflow="visible"/>
	
		<use xlink:href="#Heart"  width="88.2" height="80" x="-44.1" y="-40" transform="matrix(-0.7525 3.0766 3.0836 0.7542 1377.2711 473.2556)" overflow="visible"/>
	
		<use xlink:href="#Heart"  width="88.2" height="80" x="-44.1" y="-40" transform="matrix(-3.0996 0.6515 0.6529 3.1066 2286.9697 3539.9995)" overflow="visible"/>
	
		<use xlink:href="#Heart"  width="88.2" height="80" x="-44.1" y="-40" transform="matrix(3.1671 0.0351 0.0351 -3.1743 3519.8611 1100.2006)" overflow="visible"/>
	
		<use xlink:href="#Heart"  width="88.2" height="80" x="-44.1" y="-40" transform="matrix(-3.1312 -0.477 -0.478 3.1383 3022.9778 2023.4513)" overflow="visible"/>
	
		<use xlink:href="#Heart"  width="88.2" height="80" x="-44.1" y="-40" transform="matrix(-2.4117 -2.0532 -2.0579 2.4172 2519.7461 2376.3574)" overflow="visible"/>
	
		<use xlink:href="#Heart"  width="88.2" height="80" x="-44.1" y="-40" transform="matrix(-0.0862 3.1661 3.1733 0.0864 2264.5242 2078.7847)" overflow="visible"/>
	
		<use xlink:href="#Heart"  width="88.2" height="80" x="-44.1" y="-40" transform="matrix(0.5726 -3.1151 -3.1222 -0.5739 2580.4128 4187.1851)" overflow="visible"/>
	
		<use xlink:href="#Heart"  width="88.2" height="80" x="-44.1" y="-40" transform="matrix(-0.3094 -3.1522 -3.1593 0.3101 4021.0757 1632.6481)" overflow="visible"/>
	
		<use xlink:href="#Heart"  width="88.2" height="80" x="-44.1" y="-40" transform="matrix(-1.6136 -2.7255 -2.7317 1.6172 153.2054 109.2049)" overflow="visible"/>
	
		<use xlink:href="#Heart"  width="88.2" height="80" x="-44.1" y="-40" transform="matrix(1.5251 2.7759 2.7823 -1.5286 1521.0504 198.9785)" overflow="visible"/>
	
		<use xlink:href="#Heart"  width="88.2" height="80" x="-44.1" y="-40" transform="matrix(-3.0443 -0.8743 -0.8763 3.0512 2965.1533 4650.7612)" overflow="visible"/>
	
		<use xlink:href="#Heart"  width="88.2" height="80" x="-44.1" y="-40" transform="matrix(2.0754 2.3926 2.3981 -2.0801 3528.0291 454.1744)" overflow="visible"/>
	
		<use xlink:href="#Heart"  width="88.2" height="80" x="-44.1" y="-40" transform="matrix(-2.4005 2.0662 2.0709 2.406 2844.1033 2375.3008)" overflow="visible"/>
	
		<use xlink:href="#Heart"  width="88.2" height="80" x="-44.1" y="-40" transform="matrix(3.1583 -0.2388 -0.2394 -3.1655 1480.7834 1494.0458)" overflow="visible"/>
	
		<use xlink:href="#Heart"  width="88.2" height="80" x="-44.1" y="-40" transform="matrix(-2.3648 2.107 2.1118 2.3702 2056.1028 1798.7886)" overflow="visible"/>
	
		<use xlink:href="#Heart"  width="88.2" height="80" x="-44.1" y="-40" transform="matrix(0.3617 -3.1466 -3.1537 -0.3625 1551.4519 874.7706)" overflow="visible"/>
	
		<use xlink:href="#Heart"  width="88.2" height="80" x="-44.1" y="-40" transform="matrix(3.0153 0.9695 0.9717 -3.0221 511.8998 720.1676)" overflow="visible"/>
	
		<use xlink:href="#Heart"  width="88.2" height="80" x="-44.1" y="-40" transform="matrix(3.1507 0.324 0.3248 -3.1579 868.4915 133.2177)" overflow="visible"/>
	
		<use xlink:href="#Heart"  width="88.2" height="80" x="-44.1" y="-40" transform="matrix(-2.2476 -2.2317 -2.2368 2.2527 729.4849 1000.9498)" overflow="visible"/>
	
		<use xlink:href="#Heart"  width="88.2" height="80" x="-44.1" y="-40" transform="matrix(-3.1528 -0.3033 -0.304 3.1599 3179.1294 4867.186)" overflow="visible"/>
	
		<use xlink:href="#Heart"  width="88.2" height="80" x="-44.1" y="-40" transform="matrix(3.1672 -0.0319 -0.0319 -3.1744 934.9694 1313.4036)" overflow="visible"/>
	
		<use xlink:href="#Heart"  width="88.2" height="80" x="-44.1" y="-40" transform="matrix(0.1629 3.1631 3.1703 -0.1633 3928.0039 527.0536)" overflow="visible"/>
	
		<use xlink:href="#Heart"  width="88.2" height="80" x="-44.1" y="-40" transform="matrix(-3.0611 -0.8132 -0.8151 3.0681 2484.8499 3230.6704)" overflow="visible"/>
	
		<use xlink:href="#Heart"  width="88.2" height="80" x="-44.1" y="-40" transform="matrix(1.8868 -2.544 -2.5498 -1.8911 2667.3462 2074.7747)" overflow="visible"/>
	
		<use xlink:href="#Heart"  width="88.2" height="80" x="-44.1" y="-40" transform="matrix(2.9755 1.0856 1.088 -2.9822 1965.0868 2926.8823)" overflow="visible"/>
	
		<use xlink:href="#Heart"  width="88.2" height="80" x="-44.1" y="-40" transform="matrix(3.1633 0.1599 0.1603 -3.1705 2094.5405 2378.1177)" overflow="visible"/>
	
		<use xlink:href="#Heart"  width="88.2" height="80" x="-44.1" y="-40" transform="matrix(-3.1354 -0.4484 -0.4494 3.1425 1909.7505 853.463)" overflow="visible"/>
	
		<use xlink:href="#Heart"  width="88.2" height="80" x="-44.1" y="-40" transform="matrix(1.3475 -2.8664 -2.8729 -1.3506 2827.7036 1729.5889)" overflow="visible"/>
	
		<use xlink:href="#Heart"  width="88.2" height="80" x="-44.1" y="-40" transform="matrix(-2.5377 -1.8953 -1.8996 2.5434 3882.1523 905.4818)" overflow="visible"/>
	
		<use xlink:href="#Heart"  width="88.2" height="80" x="-44.1" y="-40" transform="matrix(-2.6493 -1.7358 -1.7397 2.6553 1480.5233 2063.8499)" overflow="visible"/>
	
		<use xlink:href="#Heart"  width="88.2" height="80" x="-44.1" y="-40" transform="matrix(-3.0879 0.7048 0.7064 3.0949 3621.8967 1660.3109)" overflow="visible"/>
	
		<use xlink:href="#Heart"  width="88.2" height="80" x="-44.1" y="-40" transform="matrix(-1.3207 -2.8788 -2.8854 1.3237 3231.3008 3604.8057)" overflow="visible"/>
	
		<use xlink:href="#Heart"  width="88.2" height="80" x="-44.1" y="-40" transform="matrix(-3.1574 -0.251 -0.2516 3.1645 2787.5627 4867.1567)" overflow="visible"/>
	
		<use xlink:href="#Heart"  width="88.2" height="80" x="-44.1" y="-40" transform="matrix(1.3239 2.8774 2.8839 -1.3269 3122.1553 1124.5641)" overflow="visible"/>
	
		<use xlink:href="#Heart"  width="88.2" height="80" x="-44.1" y="-40" transform="matrix(-2.8455 -1.391 -1.3942 2.852 4766.2612 124.014)" overflow="visible"/>
	
		<use xlink:href="#Heart"  width="88.2" height="80" x="-44.1" y="-40" transform="matrix(-3.0613 -0.8126 -0.8145 3.0683 2653.2656 3506.0281)" overflow="visible"/>
	
		<use xlink:href="#Heart"  width="88.2" height="80" x="-44.1" y="-40" transform="matrix(2.7509 -1.5698 -1.5734 -2.7572 2917.2141 3330.9158)" overflow="visible"/>
	
		<use xlink:href="#Heart"  width="88.2" height="80" x="-44.1" y="-40" transform="matrix(3.158 0.2428 0.2433 -3.1652 1654.7006 2388.9487)" overflow="visible"/>
	
		<use xlink:href="#Heart"  width="88.2" height="80" x="-44.1" y="-40" transform="matrix(0.3436 -3.1486 -3.1558 -0.3444 1978.6379 4279.2754)" overflow="visible"/>
	
		<use xlink:href="#Heart"  width="88.2" height="80" x="-44.1" y="-40" transform="matrix(-2.9897 -1.0457 -1.0481 2.9965 1714.65 1164.9385)" overflow="visible"/>
	
		<use xlink:href="#Heart"  width="88.2" height="80" x="-44.1" y="-40" transform="matrix(0.6607 3.0976 3.1047 -0.6622 2062.1013 1181.9053)" overflow="visible"/>
	
		<use xlink:href="#Heart"  width="88.2" height="80" x="-44.1" y="-40" transform="matrix(0.8734 -3.0445 -3.0514 -0.8753 877.1456 687.1431)" overflow="visible"/>
	
		<use xlink:href="#Heart"  width="88.2" height="80" x="-44.1" y="-40" transform="matrix(-2.8646 -1.3513 -1.3544 2.8711 2002.5719 3884.0427)" overflow="visible"/>
	
		<use xlink:href="#Heart"  width="88.2" height="80" x="-44.1" y="-40" transform="matrix(-3.1282 -0.4961 -0.4972 3.1353 3216.0176 3926.2563)" overflow="visible"/>
	
		<use xlink:href="#Heart"  width="88.2" height="80" x="-44.1" y="-40" transform="matrix(-3.0724 0.7694 0.7711 3.0794 1973.9518 4857.5498)" overflow="visible"/>
	
		<use xlink:href="#Heart"  width="88.2" height="80" x="-44.1" y="-40" transform="matrix(2.6549 -1.7273 -1.7312 -2.6609 3369.8582 1444.3988)" overflow="visible"/>
	
		<use xlink:href="#Heart"  width="88.2" height="80" x="-44.1" y="-40" transform="matrix(-2.9976 -1.0228 -1.0251 3.0044 2320.7813 4475.7529)" overflow="visible"/>
	
		<use xlink:href="#Heart"  width="88.2" height="80" x="-44.1" y="-40" transform="matrix(-1.8705 2.556 2.5618 1.8747 5069.7729 113.045)" overflow="visible"/>
	
		<use xlink:href="#Heart"  width="88.2" height="80" x="-44.1" y="-40" transform="matrix(1.1266 2.9602 2.9669 -1.1292 1702.4857 564.6476)" overflow="visible"/>
	
		<use xlink:href="#Heart"  width="88.2" height="80" x="-44.1" y="-40" transform="matrix(3.143 0.3913 0.3922 -3.1502 528.0821 148.7186)" overflow="visible"/>
	
		<use xlink:href="#Heart"  width="88.2" height="80" x="-44.1" y="-40" transform="matrix(3.1252 0.5147 0.5159 -3.1323 315.0091 415.1737)" overflow="visible"/>
	
		<use xlink:href="#Heart"  width="88.2" height="80" x="-44.1" y="-40" transform="matrix(3.1581 0.2415 0.242 -3.1653 1044.387 450.5075)" overflow="visible"/>
	
		<use xlink:href="#Heart"  width="88.2" height="80" x="-44.1" y="-40" transform="matrix(-2.9233 1.2192 1.222 2.9299 3198.9893 1709.7856)" overflow="visible"/>
	
		<use xlink:href="#Heart"  width="88.2" height="80" x="-44.1" y="-40" transform="matrix(1.6933 2.6767 2.6828 -1.6972 2017.1105 3242.1121)" overflow="visible"/>
	
		<use xlink:href="#Heart"  width="88.2" height="80" x="-44.1" y="-40" transform="matrix(1.3719 -2.8548 -2.8613 -1.3751 3053.7441 2689.1064)" overflow="visible"/>
	
		<use xlink:href="#Heart"  width="88.2" height="80" x="-44.1" y="-40" transform="matrix(0.0377 -3.1671 -3.1743 -0.0378 2641.8994 3852.8406)" overflow="visible"/>
	
		<use xlink:href="#Heart"  width="88.2" height="80" x="-44.1" y="-40" transform="matrix(1.2463 2.9118 2.9184 -1.2492 2261.699 2662.4929)" overflow="visible"/>
	
		<use xlink:href="#Heart"  width="88.2" height="80" x="-44.1" y="-40" transform="matrix(2.228 2.2512 2.2563 -2.233 2347.5635 4881.3823)" overflow="visible"/>
	
		<use xlink:href="#Heart"  width="88.2" height="80" x="-44.1" y="-40" transform="matrix(3.1092 -0.604 -0.6053 -3.1163 3202.3735 4275.3228)" overflow="visible"/>
	
		<use xlink:href="#Heart"  width="88.2" height="80" x="-44.1" y="-40" transform="matrix(-3.1494 -0.3361 -0.3369 3.1566 1867.1549 2584.8948)" overflow="visible"/>
	
		<use xlink:href="#Heart"  width="88.2" height="80" x="-44.1" y="-40" transform="matrix(2.5281 -1.9081 -1.9124 -2.5338 2453.6375 1779.4231)" overflow="visible"/>
	
		<use xlink:href="#Heart"  width="88.2" height="80" x="-44.1" y="-40" transform="matrix(1.1372 2.9561 2.9628 -1.1398 2918.144 3705.634)" overflow="visible"/>
	
		<use xlink:href="#Heart"  width="88.2" height="80" x="-44.1" y="-40" transform="matrix(2.7961 -1.4879 -1.4913 -2.8024 1885.7009 1507.8208)" overflow="visible"/>
	
		<use xlink:href="#Heart"  width="88.2" height="80" x="-44.1" y="-40" transform="matrix(3.0958 -0.6692 -0.6707 -3.1028 4598.2056 791.2829)" overflow="visible"/>
	
		<use xlink:href="#Heart"  width="88.2" height="80" x="-44.1" y="-40" transform="matrix(-2.2227 2.2564 2.2616 2.2277 3213.8645 2320.8813)" overflow="visible"/>
	
		<use xlink:href="#Heart"  width="88.2" height="80" x="-44.1" y="-40" transform="matrix(-2.9937 1.0342 1.0365 3.0005 2597.0522 4584.2676)" overflow="visible"/>
	
		<use xlink:href="#Heart"  width="88.2" height="80" x="-44.1" y="-40" transform="matrix(-1.7845 -2.6167 -2.6227 1.7886 4109.9941 151.4169)" overflow="visible"/>
	
		<use xlink:href="#Heart"  width="88.2" height="80" x="-44.1" y="-40" transform="matrix(-2.4517 -2.0053 -2.0098 2.4572 4450.2451 136.7833)" overflow="visible"/>
	
		<use xlink:href="#Heart"  width="88.2" height="80" x="-44.1" y="-40" transform="matrix(-3.1657 0.1012 0.1015 3.1729 1308.606 1783.11)" overflow="visible"/>
	
		<use xlink:href="#Heart"  width="88.2" height="80" x="-44.1" y="-40" transform="matrix(2.2016 2.277 2.2822 -2.2066 4189.9009 814.4421)" overflow="visible"/>
	
		<use xlink:href="#Heart"  width="88.2" height="80" x="-44.1" y="-40" transform="matrix(3.0608 -0.8143 -0.8162 -3.0678 1218.3818 146.3408)" overflow="visible"/>
	
		<use xlink:href="#Heart"  width="88.2" height="80" x="-44.1" y="-40" transform="matrix(-0.0689 -3.1666 -3.1738 0.0691 3199.1106 2982.9465)" overflow="visible"/>
	
		<use xlink:href="#Heart"  width="88.2" height="80" x="-44.1" y="-40" transform="matrix(2.6786 1.6903 1.6941 -2.6847 2642.3687 2746.2734)" overflow="visible"/>
	
		<use xlink:href="#Heart"  width="88.2" height="80" x="-44.1" y="-40" transform="matrix(2.7033 -1.6505 -1.6542 -2.7094 3243.1211 3313.3682)" overflow="visible"/>
	
		<use xlink:href="#Heart"  width="88.2" height="80" x="-44.1" y="-40" transform="matrix(-2.7336 1.5998 1.6035 2.7398 3395.053 1988.1003)" overflow="visible"/>
	
		<use xlink:href="#Heart"  width="88.2" height="80" x="-44.1" y="-40" transform="matrix(-0.4443 -3.136 -3.1431 0.4453 1986.0367 3555.7021)" overflow="visible"/>
	
		<use xlink:href="#Heart"  width="88.2" height="80" x="-44.1" y="-40" transform="matrix(3.1256 -0.5123 -0.5135 -3.1327 3812.6604 1983.3424)" overflow="visible"/>
	
		<use xlink:href="#Heart"  width="88.2" height="80" x="-44.1" y="-40" transform="matrix(3.163 0.1661 0.1664 -3.1701 2845.3887 4405.8921)" overflow="visible"/>
	
		<use xlink:href="#Heart"  width="88.2" height="80" x="-44.1" y="-40" transform="matrix(3.1474 -0.3542 -0.355 -3.1546 2984.9905 1448.764)" overflow="visible"/>
	
		<use xlink:href="#Heart"  width="88.2" height="80" x="-44.1" y="-40" transform="matrix(2.9633 1.1184 1.1209 -2.97 1688.4648 1794.8093)" overflow="visible"/>
	
		<use xlink:href="#Heart"  width="88.2" height="80" x="-44.1" y="-40" transform="matrix(-1.9755 2.4757 2.4814 1.98 658.9952 401.5806)" overflow="visible"/>
	
		<use xlink:href="#Heart"  width="88.2" height="80" x="-44.1" y="-40" transform="matrix(-1.6023 2.7322 2.7384 1.6059 2769.0691 3010.9653)" overflow="visible"/>
</g>
</svg>
